<svg width="24" height="24" viewBox="0 0 24 24" fill="none" xmlns="http://www.w3.org/2000/svg">
<path d="M5.01198 16.9641L5.96066 17.2803H5.96066L5.01198 16.9641ZM5.76117 14.7165L4.81248 14.4003H4.81248L5.76117 14.7165ZM6.53421 13.4657L7.24132 14.1728L7.24132 14.1728L6.53421 13.4657ZM14.8687 5.13122L14.1616 4.42411L14.1616 4.42411L14.8687 5.13122ZM17.1314 5.13122L16.4243 5.83833L16.4243 5.83833L17.1314 5.13122ZM18.8687 6.86848L19.5758 6.16137V6.16137L18.8687 6.86848ZM10.5342 17.4657L9.8271 16.7586L9.8271 16.7586L10.5342 17.4657ZM9.2834 18.2387L9.59963 19.1874H9.59963L9.2834 18.2387ZM7.03584 18.9879L7.35206 19.9366L7.35206 19.9366L7.03584 18.9879ZM10.1242 17.8484L9.52193 17.0501L9.52192 17.0501L10.1242 17.8484ZM9.8091 18.0431L9.36439 17.1475L9.8091 18.0431ZM19.5369 7.69083L20.4879 7.38181L20.4879 7.38181L19.5369 7.69083ZM19.5369 8.30887L20.4879 8.61789L20.4879 8.61788L19.5369 8.30887ZM15.691 4.46301L15.382 3.51195L15.691 4.46301ZM16.3091 4.46301L16.6181 3.51195L16.6181 3.51195L16.3091 4.46301ZM5.95676 14.1908L6.85244 14.6355L6.85244 14.6355L5.95676 14.1908ZM6.15148 13.8757L5.35317 13.2735L5.35317 13.2735L6.15148 13.8757ZM4.63928 18.7546L3.69738 19.0905L4.63928 18.7546ZM5.24531 19.3606L4.90943 20.3025L4.90943 20.3025L5.24531 19.3606ZM12.7072 5.29274C12.3166 4.90222 11.6835 4.90222 11.2929 5.29274C10.9024 5.68327 10.9024 6.31643 11.2929 6.70696L12.7072 5.29274ZM17.2929 12.707C17.6835 13.0975 18.3166 13.0975 18.7072 12.707C19.0977 12.3164 19.0977 11.6833 18.7072 11.2927L17.2929 12.707ZM5.96066 17.2803L6.70985 15.0327L4.81248 14.4003L4.0633 16.6478L5.96066 17.2803ZM7.24132 14.1728L15.5758 5.83833L14.1616 4.42411L5.8271 12.7586L7.24132 14.1728ZM16.4243 5.83833L18.1616 7.57559L19.5758 6.16137L17.8385 4.42411L16.4243 5.83833ZM18.1616 8.42411L9.8271 16.7586L11.2413 18.1728L19.5758 9.83833L18.1616 8.42411ZM8.96717 17.2901L6.71961 18.0392L7.35206 19.9366L9.59963 19.1874L8.96717 17.2901ZM9.8271 16.7586C9.60902 16.9767 9.56482 17.0177 9.52193 17.0501L10.7264 18.6467C10.906 18.5113 11.061 18.3531 11.2413 18.1728L9.8271 16.7586ZM9.59963 19.1874C9.84158 19.1068 10.0524 19.0388 10.2538 18.9388L9.36439 17.1475C9.31627 17.1714 9.25977 17.1925 8.96717 17.2901L9.59963 19.1874ZM9.52192 17.0501C9.47254 17.0874 9.4198 17.12 9.36439 17.1475L10.2538 18.9388C10.42 18.8563 10.5782 18.7585 10.7264 18.6467L9.52192 17.0501ZM18.1616 7.57559C18.3712 7.78526 18.4854 7.90054 18.5611 7.98972C18.6293 8.06996 18.6058 8.06124 18.5858 7.99985L20.4879 7.38181C20.3938 7.0921 20.2342 6.87021 20.0858 6.69536C19.945 6.52944 19.7621 6.34771 19.5758 6.16137L18.1616 7.57559ZM19.5758 9.83833C19.7621 9.65199 19.945 9.47025 20.0858 9.30434C20.2342 9.12949 20.3938 8.9076 20.4879 8.61789L18.5858 7.99985C18.6058 7.93846 18.6293 7.92974 18.5611 8.00998C18.4854 8.09916 18.3712 8.21444 18.1616 8.42411L19.5758 9.83833ZM18.5858 7.99985V7.99985L20.4879 8.61788C20.6185 8.2162 20.6185 7.7835 20.4879 7.38181L18.5858 7.99985ZM15.5758 5.83833C15.7855 5.62865 15.9007 5.51447 15.9899 5.43877C16.0702 5.37064 16.0614 5.39412 16 5.41406L15.382 3.51195C15.0923 3.60608 14.8704 3.76566 14.6956 3.91409C14.5296 4.05494 14.3479 4.23777 14.1616 4.42411L15.5758 5.83833ZM17.8385 4.42411C17.6522 4.23777 17.4705 4.05494 17.3045 3.91409C17.1297 3.76565 16.9078 3.60608 16.6181 3.51195L16 5.41406C15.9387 5.39412 15.9299 5.37064 16.0102 5.43877C16.0994 5.51447 16.2146 5.62865 16.4243 5.83833L17.8385 4.42411ZM16 5.41406H16.0001L16.6181 3.51195C16.2164 3.38143 15.7837 3.38143 15.382 3.51195L16 5.41406ZM6.70985 15.0327C6.80738 14.7401 6.82854 14.6836 6.85244 14.6355L5.06108 13.7461C4.96106 13.9475 4.89313 14.1583 4.81248 14.4003L6.70985 15.0327ZM5.82711 12.7586C5.64676 12.9389 5.48862 13.0939 5.35317 13.2735L6.9498 14.478C6.98215 14.4351 7.02323 14.3909 7.24132 14.1728L5.82711 12.7586ZM6.85244 14.6355C6.87995 14.5801 6.91254 14.5274 6.9498 14.478L5.35317 13.2735C5.2414 13.4217 5.14362 13.5799 5.06108 13.7461L6.85244 14.6355ZM4.0633 16.6478C3.90675 17.1175 3.76644 17.5352 3.68656 17.8752C3.61018 18.2002 3.53801 18.6436 3.69738 19.0905L5.58119 18.4187C5.6247 18.5407 5.57603 18.5774 5.63353 18.3327C5.68755 18.1028 5.79151 17.7877 5.96066 17.2803L4.0633 16.6478ZM6.71961 18.0392C6.21215 18.2084 5.89711 18.3124 5.66724 18.3664C5.42254 18.4239 5.45916 18.3752 5.58119 18.4187L4.90943 20.3025C5.35634 20.4619 5.79968 20.3897 6.12475 20.3133C6.46465 20.2335 6.88243 20.0932 7.35206 19.9366L6.71961 18.0392ZM3.69738 19.0905C3.89902 19.6559 4.34398 20.1009 4.90943 20.3025L5.58119 18.4187L5.58119 18.4187L3.69738 19.0905ZM11.2929 6.70696L17.2929 12.707L18.7072 11.2927L12.7072 5.29274L11.2929 6.70696Z" fill="black"/>
</svg>
