<svg width="94" height="99" viewBox="0 0 94 99" fill="none" xmlns="http://www.w3.org/2000/svg">
<circle cx="47" cy="47" r="47" fill="#D9D9D9"/>
<path d="M73 72.3333C73 68.8314 72.3146 65.3638 70.9828 62.1284C69.6511 58.8931 67.6991 55.9534 65.2383 53.4771C62.7776 51.0009 59.8562 49.0367 56.6411 47.6965C53.426 46.3564 49.98 45.6667 46.5 45.6667C43.02 45.6667 39.574 46.3564 36.3589 47.6965C33.1438 49.0367 30.2224 51.0009 27.7617 53.4772C25.3009 55.9534 23.3489 58.8931 22.0172 62.1284C20.6854 65.3638 20 68.8314 20 72.3333L46.5 72.3333H73Z" fill="#07166E"/>
<ellipse cx="46.4999" cy="30.5556" rx="11.4833" ry="11.5556" fill="#07166E"/>
</svg>
